<svg width="31" height="32" viewBox="0 0 31 32" fill="none" xmlns="http://www.w3.org/2000/svg">
<path d="M10.0104 2.66675V6.66675H9.04166C8.70583 6.66675 8.38291 6.68008 8.07291 6.73342V2.66675C8.07291 2.12008 8.51208 1.66675 9.04166 1.66675C9.57125 1.66675 10.0104 2.12008 10.0104 2.66675Z" fill="#202020"/>
<path d="M21.9583 6.66675H9.04167C8.70584 6.66675 8.38292 6.68008 8.07292 6.73341C4.74042 7.13341 2.58334 9.68008 2.58334 13.3334V22.6667C2.58334 26.6667 5.16667 29.3334 9.04167 29.3334H21.9583C25.8333 29.3334 28.4167 26.6667 28.4167 22.6667V13.3334C28.4167 9.33341 25.8333 6.66675 21.9583 6.66675ZM10.1783 21.3334C8.39584 21.3334 6.94917 19.8401 6.94917 18.0001C6.94917 16.1601 8.39584 14.6667 10.1783 14.6667C11.9608 14.6667 13.4075 16.1601 13.4075 18.0001C13.4075 19.8401 11.9608 21.3334 10.1783 21.3334ZM18.5742 21.6667H17.9283C17.3988 21.6667 16.9596 21.2134 16.9596 20.6667C16.9596 20.1201 17.3988 19.6667 17.9283 19.6667H18.5742C19.1038 19.6667 19.5429 20.1201 19.5429 20.6667C19.5429 21.2134 19.1038 21.6667 18.5742 21.6667ZM23.095 21.6667H22.4492C21.9196 21.6667 21.4804 21.2134 21.4804 20.6667C21.4804 20.1201 21.9196 19.6667 22.4492 19.6667H23.095C23.6246 19.6667 24.0638 20.1201 24.0638 20.6667C24.0638 21.2134 23.6246 21.6667 23.095 21.6667ZM23.095 16.3334H17.9283C17.3988 16.3334 16.9596 15.8801 16.9596 15.3334C16.9596 14.7867 17.3988 14.3334 17.9283 14.3334H23.095C23.6246 14.3334 24.0638 14.7867 24.0638 15.3334C24.0638 15.8801 23.6246 16.3334 23.095 16.3334Z" fill="#202020"/>
</svg>
